<mxfile host="Electron" modified="2025-09-03T04:23:24.978Z" agent="Mozilla/5.0 (Windows NT 10.0; Win64; x64) AppleWebKit/537.36 (KHTML, like Gecko) draw.io/22.1.2 Chrome/114.0.5735.289 Electron/25.9.4 Safari/537.36" etag="2abUDqBqIP5ChyqT_QLu" version="22.1.2" type="device">
  <diagram name="Страница — 1" id="0SL_iP5UNEBN-_xoOuYO">
    <mxGraphModel dx="978" dy="571" grid="1" gridSize="10" guides="1" tooltips="1" connect="1" arrows="1" fold="1" page="1" pageScale="1" pageWidth="827" pageHeight="1169" math="0" shadow="0">
      <root>
        <mxCell id="0" />
        <mxCell id="1" parent="0" />
        <mxCell id="FPVUuivVjFBQVfVoQUVH-2" value="User" style="swimlane;fontStyle=0;childLayout=stackLayout;horizontal=1;startSize=30;horizontalStack=0;resizeParent=1;resizeParentMax=0;resizeLast=0;collapsible=1;marginBottom=0;whiteSpace=wrap;html=1;" vertex="1" parent="1">
          <mxGeometry x="280" y="200" width="140" height="150" as="geometry" />
        </mxCell>
        <mxCell id="FPVUuivVjFBQVfVoQUVH-3" value="UserID" style="text;strokeColor=none;fillColor=none;align=left;verticalAlign=middle;spacingLeft=4;spacingRight=4;overflow=hidden;points=[[0,0.5],[1,0.5]];portConstraint=eastwest;rotatable=0;whiteSpace=wrap;html=1;" vertex="1" parent="FPVUuivVjFBQVfVoQUVH-2">
          <mxGeometry y="30" width="140" height="30" as="geometry" />
        </mxCell>
        <mxCell id="FPVUuivVjFBQVfVoQUVH-4" value="Username" style="text;strokeColor=none;fillColor=none;align=left;verticalAlign=middle;spacingLeft=4;spacingRight=4;overflow=hidden;points=[[0,0.5],[1,0.5]];portConstraint=eastwest;rotatable=0;whiteSpace=wrap;html=1;" vertex="1" parent="FPVUuivVjFBQVfVoQUVH-2">
          <mxGeometry y="60" width="140" height="30" as="geometry" />
        </mxCell>
        <mxCell id="FPVUuivVjFBQVfVoQUVH-5" value="Password" style="text;strokeColor=none;fillColor=none;align=left;verticalAlign=middle;spacingLeft=4;spacingRight=4;overflow=hidden;points=[[0,0.5],[1,0.5]];portConstraint=eastwest;rotatable=0;whiteSpace=wrap;html=1;" vertex="1" parent="FPVUuivVjFBQVfVoQUVH-2">
          <mxGeometry y="90" width="140" height="30" as="geometry" />
        </mxCell>
        <mxCell id="FPVUuivVjFBQVfVoQUVH-6" value="Email" style="text;strokeColor=none;fillColor=none;align=left;verticalAlign=middle;spacingLeft=4;spacingRight=4;overflow=hidden;points=[[0,0.5],[1,0.5]];portConstraint=eastwest;rotatable=0;whiteSpace=wrap;html=1;" vertex="1" parent="FPVUuivVjFBQVfVoQUVH-2">
          <mxGeometry y="120" width="140" height="30" as="geometry" />
        </mxCell>
        <mxCell id="FPVUuivVjFBQVfVoQUVH-7" value="Post" style="swimlane;fontStyle=0;childLayout=stackLayout;horizontal=1;startSize=30;horizontalStack=0;resizeParent=1;resizeParentMax=0;resizeLast=0;collapsible=1;marginBottom=0;whiteSpace=wrap;html=1;" vertex="1" parent="1">
          <mxGeometry x="460" y="200" width="140" height="270" as="geometry" />
        </mxCell>
        <mxCell id="FPVUuivVjFBQVfVoQUVH-8" value="PostID" style="text;strokeColor=none;fillColor=none;align=left;verticalAlign=middle;spacingLeft=4;spacingRight=4;overflow=hidden;points=[[0,0.5],[1,0.5]];portConstraint=eastwest;rotatable=0;whiteSpace=wrap;html=1;" vertex="1" parent="FPVUuivVjFBQVfVoQUVH-7">
          <mxGeometry y="30" width="140" height="30" as="geometry" />
        </mxCell>
        <mxCell id="FPVUuivVjFBQVfVoQUVH-9" value="UserID" style="text;strokeColor=none;fillColor=none;align=left;verticalAlign=middle;spacingLeft=4;spacingRight=4;overflow=hidden;points=[[0,0.5],[1,0.5]];portConstraint=eastwest;rotatable=0;whiteSpace=wrap;html=1;" vertex="1" parent="FPVUuivVjFBQVfVoQUVH-7">
          <mxGeometry y="60" width="140" height="30" as="geometry" />
        </mxCell>
        <mxCell id="FPVUuivVjFBQVfVoQUVH-10" value="Name" style="text;strokeColor=none;fillColor=none;align=left;verticalAlign=middle;spacingLeft=4;spacingRight=4;overflow=hidden;points=[[0,0.5],[1,0.5]];portConstraint=eastwest;rotatable=0;whiteSpace=wrap;html=1;" vertex="1" parent="FPVUuivVjFBQVfVoQUVH-7">
          <mxGeometry y="90" width="140" height="30" as="geometry" />
        </mxCell>
        <mxCell id="FPVUuivVjFBQVfVoQUVH-11" value="Description" style="text;strokeColor=none;fillColor=none;align=left;verticalAlign=middle;spacingLeft=4;spacingRight=4;overflow=hidden;points=[[0,0.5],[1,0.5]];portConstraint=eastwest;rotatable=0;whiteSpace=wrap;html=1;" vertex="1" parent="FPVUuivVjFBQVfVoQUVH-7">
          <mxGeometry y="120" width="140" height="30" as="geometry" />
        </mxCell>
        <mxCell id="FPVUuivVjFBQVfVoQUVH-12" value="Option 1" style="text;strokeColor=none;fillColor=none;align=left;verticalAlign=middle;spacingLeft=4;spacingRight=4;overflow=hidden;points=[[0,0.5],[1,0.5]];portConstraint=eastwest;rotatable=0;whiteSpace=wrap;html=1;" vertex="1" parent="FPVUuivVjFBQVfVoQUVH-7">
          <mxGeometry y="150" width="140" height="30" as="geometry" />
        </mxCell>
        <mxCell id="FPVUuivVjFBQVfVoQUVH-13" value="Option 2" style="text;strokeColor=none;fillColor=none;align=left;verticalAlign=middle;spacingLeft=4;spacingRight=4;overflow=hidden;points=[[0,0.5],[1,0.5]];portConstraint=eastwest;rotatable=0;whiteSpace=wrap;html=1;" vertex="1" parent="FPVUuivVjFBQVfVoQUVH-7">
          <mxGeometry y="180" width="140" height="30" as="geometry" />
        </mxCell>
        <mxCell id="FPVUuivVjFBQVfVoQUVH-14" value="Option 3" style="text;strokeColor=none;fillColor=none;align=left;verticalAlign=middle;spacingLeft=4;spacingRight=4;overflow=hidden;points=[[0,0.5],[1,0.5]];portConstraint=eastwest;rotatable=0;whiteSpace=wrap;html=1;" vertex="1" parent="FPVUuivVjFBQVfVoQUVH-7">
          <mxGeometry y="210" width="140" height="30" as="geometry" />
        </mxCell>
        <mxCell id="FPVUuivVjFBQVfVoQUVH-15" value="Option 4" style="text;strokeColor=none;fillColor=none;align=left;verticalAlign=middle;spacingLeft=4;spacingRight=4;overflow=hidden;points=[[0,0.5],[1,0.5]];portConstraint=eastwest;rotatable=0;whiteSpace=wrap;html=1;" vertex="1" parent="FPVUuivVjFBQVfVoQUVH-7">
          <mxGeometry y="240" width="140" height="30" as="geometry" />
        </mxCell>
        <mxCell id="FPVUuivVjFBQVfVoQUVH-16" style="rounded=1;orthogonalLoop=1;jettySize=auto;html=1;edgeStyle=orthogonalEdgeStyle;targetPerimeterSpacing=0;sourcePerimeterSpacing=0;shadow=0;" edge="1" parent="1" source="FPVUuivVjFBQVfVoQUVH-3" target="FPVUuivVjFBQVfVoQUVH-9">
          <mxGeometry relative="1" as="geometry">
            <Array as="points">
              <mxPoint x="440" y="245" />
              <mxPoint x="440" y="275" />
            </Array>
          </mxGeometry>
        </mxCell>
        <mxCell id="FPVUuivVjFBQVfVoQUVH-17" value="Website" style="swimlane;whiteSpace=wrap;html=1;" vertex="1" parent="1">
          <mxGeometry x="80" y="200" width="160" height="140" as="geometry" />
        </mxCell>
        <mxCell id="FPVUuivVjFBQVfVoQUVH-18" value="Registration" style="rounded=0;whiteSpace=wrap;html=1;" vertex="1" parent="FPVUuivVjFBQVfVoQUVH-17">
          <mxGeometry x="30" y="40" width="100" height="70" as="geometry" />
        </mxCell>
        <mxCell id="FPVUuivVjFBQVfVoQUVH-20" style="edgeStyle=orthogonalEdgeStyle;rounded=1;orthogonalLoop=1;jettySize=auto;html=1;entryX=-0.002;entryY=0.101;entryDx=0;entryDy=0;entryPerimeter=0;" edge="1" parent="1" source="FPVUuivVjFBQVfVoQUVH-18" target="FPVUuivVjFBQVfVoQUVH-2">
          <mxGeometry relative="1" as="geometry">
            <Array as="points">
              <mxPoint x="260" y="275" />
              <mxPoint x="260" y="215" />
            </Array>
          </mxGeometry>
        </mxCell>
        <mxCell id="FPVUuivVjFBQVfVoQUVH-21" value="Website" style="swimlane;whiteSpace=wrap;html=1;" vertex="1" parent="1">
          <mxGeometry x="640" y="200" width="160" height="140" as="geometry" />
        </mxCell>
        <mxCell id="FPVUuivVjFBQVfVoQUVH-22" value="Post" style="rounded=0;whiteSpace=wrap;html=1;" vertex="1" parent="FPVUuivVjFBQVfVoQUVH-21">
          <mxGeometry x="30" y="40" width="100" height="70" as="geometry" />
        </mxCell>
        <mxCell id="FPVUuivVjFBQVfVoQUVH-24" value="" style="endArrow=classic;html=1;rounded=1;exitX=1.002;exitY=0.054;exitDx=0;exitDy=0;exitPerimeter=0;entryX=0;entryY=0.5;entryDx=0;entryDy=0;" edge="1" parent="1" source="FPVUuivVjFBQVfVoQUVH-7" target="FPVUuivVjFBQVfVoQUVH-22">
          <mxGeometry width="50" height="50" relative="1" as="geometry">
            <mxPoint x="600" y="200" as="sourcePoint" />
            <mxPoint x="650" y="150" as="targetPoint" />
            <Array as="points">
              <mxPoint x="620" y="215" />
              <mxPoint x="620" y="275" />
            </Array>
          </mxGeometry>
        </mxCell>
        <mxCell id="FPVUuivVjFBQVfVoQUVH-25" value="" style="shape=image;verticalLabelPosition=bottom;labelBackgroundColor=default;verticalAlign=top;aspect=fixed;imageAspect=0;image=data:image/png,iVBORw0KGgoAAAANSUhEUgAAA8YAAADnCAYAAADciU/PAAAACXBIWXMAAJnUAACZ/AFTUVa8AAAgAElEQVR4nOzdeXhV1bkG8PfbJ2FSICcJotUqpSg5EXFC6wCBOLbW6TpEq5BDihqH1s7V2lrEtvfqbW979VorVsyAaBvnoVZbbZjV1nkg4IgzJDlJQEgCOWd/948TWqoMSc7ae+19zvt7Hv4okG+9BBvy7b3Wt0RVQURE2eWoioqhkSFDJgLYD8B+AnwBIrsrMBoio0R1EIAhAIb2fsg6AC6ADVBdA5FmAB9D9Q2ovu4CTcvGjXtDZ8927fyJiIiIiLwjxe1NDbZDEOW6PW+7N2/kq28kTdRyVZ9eUlf3axO1wqK8vDwvtffe9SKSZ6Keuu6ji+vra03U8ssR06ePyI9EjoXIsaJ6BIADARj5fGxlHYBnBHgq5TiPfW7jxn80NDSkDK9h3NR4/FsQOdp2jqyn+vaiurorMy1TVlk5UxznJBORctzri2prf9KX3yginwNwucd5+qJNVf/bdoi+EJETAZTbzgFgsao+6vUiInISgDKv1wmoFID1ADYBSPT+aAXwvqp+bDNYn1XLHpgbkqwW5anq2bZDEOW6ZHREo6oa+QdWgGkVFRU3hKFhMUX33nsKgK8Z2wHjOHVmCnlryvnnR528vAoXOGdQJDIZQD683QU0EsAJCpzguO7sNUOHJsri8UehumD37u4ngvrfnAJfAv+t88NzJoqoyEH8+zLiqX783tEArvAqSD+8AyAUjTGAKQjG58wB4HljjPRDgO/7sE6oiEg3gNUA3gTwEoAXAbygqm/ZzPUZiutQKZeiXjfajhJkpt8mENEAdO05+mmYe/I8as2wYUcAWGaoXuC5IqcabAjX7TpixBOminmhbObMo1X1csnLO02BwWIvShGAGRCZsWbo0I/LKitr3fz8m5bOm/eRvUhERES+GQKgpPfHyVt+UkTWAFgEYCGAx1X1HSvp/hkI+2AofopgPMwJLMd2ACIC1k8seRnpbapmuO6pxmqFgck/r+ojj9544yZj9QwqmzHj9LJ4/BmoLhWgAsBg25m2sgdEfuQkk++UxeP1U+Lx/WwHIiIismR3AOcA+B2At0XkeRG5WkRKLGb6Li6Rgy2uH3hsjIkCwB0yqAeqj5iqpyI50xiXV1ZOgMhYU/VU5F5TtUyZOnNmWVk8vhyOcz+Aw23n2YlBAGYI8NqUePyWybNmfc52ICIiIssOBnAtgCYReVZELhKRXXzOkAcXc1EhEZ/XDQ02xkQBYbIhE6AkV97YJYHTDJbbkOrqesxgvYyUV1XtXhaP16vqQgBH2s7TT3kCVDvJ5BtT4/FrJlRUDLIdiIiIKAAOBTAXwLsico2IFPq49mGI4hIf1wsVNsZEAdHbkBkbiuDkyFtjETnFVC0FHl3e0NBlql4myiorL0y57koAMwBYPEacsWEKzC4aOvSZsnh8ou0wREREAVEEYDaA1SLyCxEZ4dO6/4kLZS+f1goVNsZEAbG8oaFLRIxNlnSBrG+MjzjvvNEADjNWUPUeY7UG6Pjq6pFlM2feBZFbkZ4CnRUUOAjA36fE41fInDn8t4eIiChtOICrALwhIpeYunpyh+tFcKPHa4QSvzkhChJVc9upVY8qP++8YlP1gmhQXt6pMPd1rCuvu/vPhmoNyJQZMw7c1N39ElTPtZnDQ4MFuG7KW281TKquHmY7DBERUYDsBuBmAM+JyKGerqT4D1TL6Z6uEUJsjIkCxOnq+hMAU1t5I25+/lcN1QomEWPniwV4rLGhYYOpev01OR7/ijjOYgD72MrgG5Ezh3V3L58Sj+9tOwoREVHATATwVO/5Yy/fHt+MasmanWkmsDEmCpDexuwvpupl83bqEysrdwFwjKl6CtxnqlZ/lVVWznSAhwH4db4oCA4UYPGUWbOMTRQnIiLKEvlInz/+m4h4dbvDHlD8zKPaocTGmChg1OR2auDE8qqqIabqBUmnyAkAhhoq16PJ5J8M1eqXssrKCyEyD0AuXp+wjySTy8qmTy+1HYSIiCiApgB4XkQme1JdcBkulrDdeuEZNsZEAZMXiTwMYLOhcru4qZSxt6pBIoCxadQA/rJkwYJ2g/X6pKyy8lyI3ILc/lq8u0Qif5n69a9/3nYQIiKiABoN4AkROceD2g4Uc1Et+R7UDp1c/maMKJAaa2o6BHjSVD03C69tkjlzHBU5yVQ9k3dI99WUqqppEKkFvw5DgT3dVOrR8qqqAttZiIiIAmgwgAUicrEHtQ8A8G0P6oZOzn9DRhRIZrdTnyIiYb4H9zOmvPPOkaI62lC55GDVhwzV6pPyGTPGies+gPQ/dARAgAmuan22/bdKRERkSATAzSJS7UHta3Cp5PzMDzbGRAGUL/IAgKShcp+bOnPmJEO1gsF1jb0FV5HGJ+rqEqbq7Ux5VdWQlOM0IIvuKDZFVU+ZXFn5Q9s5iIiIAkqQbo7PN1x3GFzcbLhm6LAxJgqg3kZtkal6qVQqq7ZTq8Ht4eK6vk6jdlOpGwAc7Oean6IA2gG8I8CLABYDeAoiKwB8AMDalVUAIMDPp8XjHARCRES0bQ6AGhGZZrSq4kRcJOcarRkyXt6NRUSZELkXqseaKSWnArjaRC3bpsTj+wlQYqhcKhKJPGCo1k5NnTnzBBW50K/1ejVD5FGoPu+47ovdqi89fccd63f0AVPi8b0dkYPUdQ8CcCREjkX66gg/5KWA28urqg5urKnpNlFQRP7gqr5kopYJAhwJwMQd3Ms0fc1XIDjAGtsZPuVBBZ6yHcIa1Y9sRyAiz+QDuEdEvqSqbxmrKvhfXCqP42b1fSBpELAxprB7C6IvQuVM20FMi4jcn1K9CWZ2dkwsr6oa01hTs9pALasckVNV1VS5ZY01Nb58Mz951qzhjurvkd4G5bV1CvxBRO7evbNzYUNDQ6o/H7ykru49AO8BeAgAjrrggsL8zZv/Q0W+BsDIw5odEaAklUr9FMBVJuotqq19CL1/liCYWll5mYpk3Bgr8OySurrrTWTKUk8sqau7yXYIIiKPFAFoEJEjVdXUbSaj4eJ6ABcZqhcq3EpNYbbBhfxHoqD0bABXAujXN/9B11hTs0ZFlpmql1TNiu3ULmDyz3GPwVo75PT0/ATA3h4vs0GA65P5+WOX1NVdvLi29sn+NsXbsvy229oW1dfPW1xXd5y67kEicreJsDsk8v0p8fh+nq9DREQUXocAuNZoRcUFuFCy8qrPnWFjTGGlqjqrLVryigLaGo1dr6onI312Mms4JqdTZ0FjXH7eecWiepShchpJpe43VGuHplZWfgEil3u4hKrIb5P5+fssqqu7cvltt7V5tdCS+fNfWlRbWwGRyQBe82odAPkOcJ2H9YmIiLLBD0SkzGA9gYPfoUqGGKwZCmyMKaT0+kRhacPWP5MoLH3MiejhAF61FMq8SOQ+pIclmVAW9ntik4MGnYT0dQUZE+CZxjvu+MBErZ1RkV8A8OofmA8c1z1xSW3tN7xsiD9tcW3tsojjTALwKwCuF2so8B9lM2ce7UVtIiKiLOEAuE1ETF4BuR/ykXO3RLAxpvARPJGIlv5kW7/UPKL0TSepR0LEty2yXlp0++3vC/CMoXL5SdWvGKplh6qJgUVpIsbexu/I5BkzxgOo8Kj8kxHHOWDh/Pl/9aj+DjXW1HQvrqv7gQMcB2CdJ4uo/tSTukRERNljXwDfNlpRcBUulJjRmgHHxpjCZvXmSORruoPzxM2jSjckCkoqkCXnjhUwdp2QmD2f66uTLr98sADHm6rnpt/Ge86JRK6EobfcWxORhyOOc3JjTU2H6dr9tbCurjGiOhmAF1NwT5hWVXWYB3WJiIiyydUi8jmD9QbDwS0Q8WNoaCCwMaYw6RIHZ64fvl/rzn5jNp071rw8c282Vb8yqbrar2t3jFq/bt0xAIYbKSby/JJ58942UmsHymbM2AOq53tQ+i7n3XfPMHWdkQmN9fWvuq57DDxojl3XzbntXERERP20C4AfGa5ZhmrMNFwzsNgYU1ioKqpaRsae788HZcO54yXz5r0NkX79uXdg5NDu7qmGavlKzNz7uoUvW+1V5Oswf//vM7uOHFnV2NiYNFw3Y0vnz1/lOs6ZADYZLn365FmzTD4FJyIiykYXicgYoxUVv8IlspvRmgHFxpjC4r8ThbE/DuQDs+Lcscnp1CHcTi0iIsBXTdVzUynPt1FLWpXJmiqyNpJKnfXojTeabjyNWVpT8zRUzZ5zAvKcZHKm4ZpERETZZhCA7xuuWQgX/2O4ZiCxMabgEzyRiMZ+nEmJT5079mSCrpdc1zU5KOoUg7V8cfSMGYcC2MtELQVeXTp//ioTtXakLB6fAuCLBkuq47rn+TVJOxOL6+tvgcgfDJeNG65HRESUjeIiMtJwzem4WIzNeQkqNsYUdO/ubNhWX205d+wifOeOl86fv0rNbQcfM2XGjAMN1fJFKLdRq55luOQfFtXX/81wTc9ERL4DYL3BkvuVxeMTDdYjIiLKRrsCMLpjDQCguBWVsovxugHCxpiCrEscnNGXYVv90RYt/XMYzx07gLnt1I4Tqu3UImIsr/qwpT698xunGyzZmUomTQ/U8FRjTc0aANcbLmv6YQMREVE2qvag5hgMQ0Y7OIOOjTEFlgBf7++wrb7617ljc2d3Pec4OXnOuLyqagwAU28KVy2trX3NUK3tmjx9+kQAnzdVT4H/XrZgwbum6vkl4ji/BvCesYIixs6ZExERZbESETnIeFXFD3CRB3UDgo0xBZICv2yJxkyfUfw36XPHpWcjJOeOF9XUvKLAShO1FDi0fPp0I2d2vea6rrFt1OLTADYRKTdYbpOr+juD9XzTWFPTDdXfGiuoelD5eecVG6tHRESUvc7xoGYegLmokIgHta1jY0zBo3iyLbr2Kn+W+rdzxx1+rJkJUb3fVKmU45xsqJan1OSwMIPTvXfIbGP8h2X19c0G6/lKU6nfA9hoqJyTys+fZqgWERFRNvPm+JHgcBR4slXbOjbGFDTvbs6PnKuY5usdrb3njg8D4Pk220yoye3UBs/teqW8qqoAQJmhcu8sqqt7wVCtnTnKVCHHccy9cbVgyYIF7aK6wFhBkaON1SIiorD5HwCFPv34AoCDABwD4LsAFgBo8/6PaMw4ERnrSWXBf+ES2dOT2haxMaYg6RJHzjQ9bKuves8dHxHkc8dLamufg+rbJmopcMzkWbOGm6jlFdd1TwKQb6icL9uojz7//H0AmNruu3phTc0/DNWyRkxe3aR6iLFaREQUNl2q2u7Tj9Wq+pKqNqrqb1R1OoA9kB6u+bTlz0NfneBR3RFwcYNHta1hY0zBIXJJy8iS52xGCMO5Y3UcU9upBzuplFdfMI1QEWPbqNWnbdQRxznYWDGRx4zVsmjDkCFLAawzVO4gmTOH/3YREZHvVHWzqj6I9M6wswC0WI60M8d6WPtMXCwmr9O0jt9cUCAo5FetBSV1tnMA/zp37KTPtgbu3HHEYIMnrhvY7dSTqqvzofplQ+U+WDp//t8N1dohiUQmmKqlqn8xVcumZ+fO7RHA1B3MI6atXr23oVpERET9pmn3AjgYwHLbeXbgS55WV/wfZkmgdx/2Bxtjsk/xZFt0TeDuaG2Oxh51IjgcATt3vKi+/mkAH5iopSInVVRUBHKy4LBNm8oAFJioJar3qaqaqLUzqmrqPI/bk0o9aaiWdSab/JTqF03VIiIiGihV/RDA8QAW286yHZ8Xkd29rI88XOthfV+xMSbb3s0flP81v4dt9VXziNgbTlKPgOI+21m26G3wTG2nLl47bFgwhxmpmrumSdWX88UAANUvGKr07tN33LHeUC37HOcVY7Vc15thIkRERP2kqp1I7zJcZTvLdpg74rVtl+NCOcLjNXzBxphs6hZHzvx413GBPp/RPKp0Q6IwdhaCdO7Y4HZqFwjqdmoj54tVZO1umzb5t81JZIyROqpB/Qd2QJJ5eU0Gy5l6+EBERJQxVV0P4DwAm21n2YZSj+s7cDAX1WJqWKo1bIzJngAM2+qroJ07XvLFLy4B8LGJWmLwzawpU2bMOBDAGBO1RPW+hoaGlIlafbSboTomG0nrlt92WxsAM/cxi4wyUoeIiMgQVX0ewK9t59iGcT6sMRGCb/qwjqfYGJMVIvrr1oKSWts5+iso54519mxXgYcMlRs3tbIyZqiWEU4kYm4aNfzbBn9URcVQAMNM1BLgLRN1AuZ1Q3XYGBMRURBdD6DddohP8aMxBhQ/w4US6h1dbIzJfyp/ay1ovsJ2jIFqHhF7Q1LOkbbPHUdc19x2apFAbadWc9OyE3nvvbfQUK2dGjxoUJGxYo5jfWeCaSJi6psFc59nIiIiQ1S1A8DNtnN8il/N6jA4+K1Pa3mCjTH57b38QXnnBnXYVl+1FI//xPa5Y/ngg0YArUZqBeic8eRZsz4HkUkmaqnIA42Njf79t5afv6upUqq6wVStoDD1ZxLA2OeZiIjIsHkAfLkJo4/83GX1FVwkFT6uZxQbY/JTtzhO4Idt9ZXtc8e9Dd/DhsodUV5V5eU4/z5zUqnTAIiJWmpwSFlfpFx3kLFiIlnXGIvqJybqKDDYRB0iIiLTVPUdAMts59jKiJT62PMJbsClEvVtPYPYGJNvVPTSlpHjn7Wdw7Stzh2v8H1xEVONn5N03ZMM1cqM6smGKq3r6Ory9R5gFXMTGV2RjaZqBYWaavZV2RgTEVGQ/cV2gK1tduHnxOjdkcJ/+bieMWyMyRci+E2ioLTGdg6v9J47PgJq7H7hPtl1xIgnAKwzUSsI26nLKyp2BXCMoXIPv9rQ4Ou1CSYb4zzAz0na/lA1s63d4OeZiIjIA4tsB9ha0kXE5yUvRLVM9nnNjLExJs8JsLS1oDO0w7b6qvfc8Znw8dzxozfeuAnmtlMfP6m62shE5YFKDRt2IoAhhsrdY6gOERERUX88jwCdM3b93Eqd5gC4DZdLqHZ4sTEmr72Xl59/huLQHttB/LDl3HHv21d/zh2bm049bGhX17GGag2ImJtGvSHZ1RWobUxERESUG3qHTa61nWMLNTS7pZ/GYxO+b2HdAWNjTF7qEkfOyJZhW/3RGu38C4AmP9aK5OU9BsDIUCMRMXZ/cH9VVFREVMTUOec/LW9o6DJUi4iIiKi/3rYdYAsLb4y3uBrVUmJp7X5jY0yeUdHLWkaWPGc7hw1F7cP+F8CRfqzVWFPTrcCfTdRSkVNlzhwrXxfWDht2NIBiE7X8nkZNRERE9CnttgMEwGAAt0DExhvrfmNjTN5Q3JDNw7Z2pLijaQaAS/1c0zE0nVpURx+9evXhJmr1l2tu+FfXMOBRQ7WIiIiIBiLrrl0coKmoxgzbIfqCjTEZJ9BliUL9oe0cNuzWseJgKOb6ve7GwYMfAdBpopbjula2U4uqkXUFeOzx+vqsu+qIiIiIQoXfi2yh+DW+LqNsx9gZNsZk2vuR/OQZilJfr8kJgtHNr452FQ8BGOr32s/OndsJESPDptTCtU1TKytjAPYzUszc3c5EREREA+XLDSUhUYQ8/Mp2iJ1hY0wmdcN1z1yz68Rm20H8JnguP5Uf+SMge1kLYehcrQATplZV7WuiVl+5Iqaa8U2D0m/PiYiIiCgoBJW4SI6zHWNH2BiTMap6WWvR/v+wncOGovZhvwEw1WaGwUOGPAxgk4laqnqyiTp9JebeUv/1r3PnrjNUi4iIiIhMEfwO3xXfd1b2VZ7tAJQlVG5MFMZutx3Dht5hW5fZzvHXuXPXlcXjTwLI+MojTZ/3/U3mqXbu6MrK3SIiXzJRS0XuM1GHiLLCuVMrKw+wHcILqfz87y+dN8/INX1ERD4ah434MYCf2A6yLWyMKWMCXdZaqD+wncOG9LAt8X3Y1vYocK8YaIwFKDsuHi96oq4uYSLXjjgiJwOIGCiVzNu8+WEDdYgoOxytIkfbDuEFR/UnMHR/PRGRz67AxXI3btGXbAf5NG6lpkx9jJScnbvDtuRBWBi2tT2DgQcBJA2UimwGvmKgzk4Z3Eb9t8Y772w1VIuIiIiIzMuDYi7mSOD60MAFolDphquntxTHPrYdxG+ChXnpYVv4vO0sW+t9w7vQRC0FPL+26aiKiqEAjAxiUE6jJiIiIgqDL+EjXGg7xKexMaYBU8U3WotK/247hw1F7btZH7a1XeamU5900uWXDzZRa3siQ4YcB2AXA6XcPJGHDNQhIiIiIu/9Ny6RPW2H2BobYxog+b9EYWye7RQ2FLevmA7IN2zn2J7NyeT9AFIGSu26cf16T5t/MXVNk+rixpqaNUZqEREREZHXRkDxa9shtsbGmAZieSLqft92CBt261hxMBCcYVvb8vSdd64FsMxELdfc+d/PkDlzHABmroXiNmoiIiKicFFU4GLx/OheX7Expv76WFJOTg7bGvHJyiJVuRfAMNtZdsbUeVtH9XQRERO1Pu3o1asPB7C7gVIqkciDBuoQERERkZ8UN+Ey2dV2DICNMfVP77Ct8R/ZDuI3wcK8QUm9R4Ev2M7SF6n0OWPNtI4Ce5ZVVh5kINJnOKmUqbfRTy26/fb3DdUiIiIiIv/sjSSusR0CYGNM/ZDTw7badv8fANNs5+ir5XV1HwrwjKFypxmq8+8MnS9WgNuoiYiIiMLr26iWQ2yHYGNMffXbnB62JXq57Rz9Zmg7tYr5sx9TZs0aC2B/I8Xy8h4wUoeIiIjIHE9v9sgyEQBzUSERmyHYGFNfLE9E9bu2Q9iwW8eKg4I+bGt7HJF7YGA7NVQPKa+qGpNxna1IKmXkLbQAzy6ZN+9tE7WIiIiIDArEudkQmYQovmkzABtj2plcH7Z1H0IwbGtbGmtqVkPkBRO13FTqqybq/Kuga+p8MbdRExERURANtx0ghH6BC8XaPB82xrQjPS6cs3N32JZ7d1iGbW1XeghX5mUMbqc+6oILCiEy2UStlOveb6IOERERkWF72w6whZjYQeiPYXDwW1uLszGm7VLFpW3R8Ubuww2borbRvwKk3HaOTInj3G2oVPkR06ePMFEor6fnJAB5Bkq9vHT+/FUG6hAREREZIyJ5CNDLFZHQNMYA8BVcJGfaWJiNMW3PzYnC2G22Q9gwqn3F+RB8y3YOExbV1LyhwKsGSg3Kd5wTDdSBGJpGbeptOBEREZFh4wHk2w6xhSNwbWfoF8FNqJICv5dlY0zb8lQiqt+xHcKG3TpWHKSQW23nMMkxdA7XREM7oaJikKoaabBdx2FjTEREREF0jO0AW4uErTEGdsdg/MLvRU1sZ6TsskZSzlmK8Tk5bGtwiIdtbY+jek9KZLaBUieVl5fnNTY2JgdaoGjYsGmqamJL9qqltbWvGahDRNnrQQWesh3CC135+RttZyCiHTredoCt5TsY8Pdu1iguxkWyALfqcr+WZGNMW+txoWe35eSwLUSKknpn6IdtbUNjff2rU+LxlQKUZFiqMDlmzGQACwdcQdXMNU3pq6iIiHbkiSV1dTfZDkFEuUVEihGsxjg5yEGP7RAD4EAwF9VyCOaqL/m5lZr+SVQua4uWLrWdw4bitqZfATjBdg6vCHCfkTqpVEbbqRUwc+0TzxcTERFRMFUBGGI7xFZabQfIwAQA3/NrMTbGtMUtLYUlv7cdwoZR7SvPU8G3befwlOuaaiQH/Ma3bMaMQwDsYyDDO4vq6ozcz0xERERkiogMAfAN2zk+5WPbATL0U1TLF/1YiI0xAcBT0Wh+djeG2xHteO1AhWb9A4HF8+c/D+CtjAuJjJ08c+b+A/pQxzE1jdrUFVREREREJn0HAbq/uNebtgNkaCiA30NEvF6IjTGtgRs5+w2M22Q7iN9Grl9R6GThsK0duN9EEQcYUIOrA/y4zxDhNmoiIiIKFBEZB+BHtnNswxu2AxhQjmqc7/UibIxzW48DrWgt2u9D20H8JkAkP4U7BTLWdha/mLreSFT73eAeFY/vCeAgA8t/sKS+/h8G6hAREREZISKDAfwRwHDbWbYhGxpjQPG/+LqM8nIJNsY5TCDfaI6WLrGdw4bijqZfAmLkPt2wWFZb+wyA9zKto8Dh5VVVu/fnY/JVTweQ+RYYkXtUVTOuQ0RERGSAiAxCuik+xHaW7XjOdgBDipCP671cgI1xjlLI3JZoya22c9gwqn3lear4ju0cflNVFdUHDJRyUq57cr/WFjGyjVo5jZqIiIgCQkQKkD6qZuQ6Sg90AmiyHcKgmbhYjvWqOBvj3PR0YTTvW7ZD2JArw7a2y9R26n40upNnzRoOYKqBZdcsHTvWt0veB0JSKb7NJiIiygEichTSb2NPsp1lB15Q1aTtEAYJFL9DlXhyHRYb49yzBm7kLA7byk2jOzuXAViTaR1VPW5SdXWfPo/S0/NlAIMzXRPA/Tp7tmugjnccx9g/PkkgYqpWYIjkGaq02VAdIiKiPhMRR0SmiMgjAJYBCPqsmsW2A3hgXwz2ZsiZqW9SKBx6HGhFc44O2ypOOQsUGvQvYJ5qaGhIlc2c+QBUL86w1NBh3d3HA3hwZ79RDG0vEtV7TNTxkiOy2dQRaEd1FyOFgsXMUBKRnHuwR0REAIChIhL1cb0CAMUAJgI4FMApAPbycf1MPWY7gCcUV+Ji+SNu0RUmy7IxziEC/WauDtsq7FhxvUK+bDtHEKjqvQJk2hhD0tcv7bAxrqioiGDoUBOf91bn/fcD/9QzlUxudhxDG3FUdzVTKFDM/JlU2RgTEeWm7/X+oJ1bD+Ap2yE8MgjALRCZCoNDWbmVOlco6lqipXNtx7BhVPvKr4kKv4j2ynvvvYUAEpnWUeBkmTNnh19DPt5llykAijJeS+TBxsbGwJ+RyVfdaLBcEK98yJSpP5PJzzMREVE2+rOq9tgO4RnFFFyEWSZLsjHODU9HC/OrbYewobB91cScHra1DY2NjUnpwxboPtit7M03j9jRb5BUKremUefntxqsVmCwVlCY+TOJmPw8ExERZaMFtgP44IPkVAgAACAASURBVFeYJZ8zVYyNcbYTrFXtOTtnh23BvQ9ANp7VzIypRtNxdtz4ivTrWqft6Ojo6nrSQB3PNdbUdAPYYKSYyBeN1AmW8SaKiOs2m6hDRESUpdoBPG47hA9GIoJfmSrGxji79ThARaJw4ge2g/hNAGdQylkAIBubi4wlurufANCRaR1NnzPepskzZ+4PYN9M1wDw8KsNDWGaQtxipIpqzEidgDjqggsKAYwyUUv5xpiIiGhH7lDVMH3vNHCCr+EiIy9i2BhnM4Fe3lwQC/zAIi8Utq+8XqEctrUdvY3mIwZKxabE4/tt6xccVTPTqEUCP416awqsNlTKyNvVoMhLJk02+u8YrEVERJRNFMBvbYfwleAmXCYZD/hkY5y96luipbfYDmFDccfKMwTKYVs747pGtlM7qqds6+clfaVBpjb0dHb+1UAd/4i8bajS3sdXV480VCsIJpoqJKqmPsdERETZ5mFVXWU7hM/2QRI/zbQIG+Ps9Ew0mn+R7RA2FLavmgjVegBiO0vQJTdtehwGzsOqyGe2U5dXVe2uwOGZ1gbwp+UNDV0G6vjHdU29zXS6u7uPMVQrCE4wVSiZSr1lqhYREVGWud52AEu+g0vk4EwKsDHONulhW2dx2BbtzPKGhi4FHjVQ6ujy884r3vonUqnUKTDz9SVU26gBwHGcV0zVEhFjzaRNk6qr86FabqjcuuV33vmeoVpERETZ5BFVXW47hCV5cDEXFRIZaAE2xtmlRyDn5O6wLbkDHLbVL46Iie3UkeSgQSdt/RPiOCa2UXcOVf2zgTq+cpLJ540V0+w4J79rd/dkAGa2hau+oKpqpBYREVH2cAFcbTuEZYehEJcO9IPZGGeXb7cUlCyyHcKGwvam6xT4iu0cYeN0dj4KIOOtyuK6/9xOPam6epiqHpdxTeDxx+vrN2Zax2+Nd9zxAUxNpgbGTJk581BDtaxxRSqMFXOcF43VIiIiyh63qSr/jVT8AhfKXgP5UDbG2WN+azR2s+0QNqSHbeH7tnOEUWNDwwYBHsu4kMiJ5VVVQwBgWGfnCQCGZlwzhNuot/KUqUKO6oCffAZBeVVVAVRnGCy51GAtIiKibNAK4Me2QwTEcDgY0ABiNsbZ4YWhG4dX2w5hA4dtGWBmO/WuPa5bDhjbRr1pUypl4jopO1QbjZUCvnZcPF5kqp7fkq77dZg79+9GNm/OyV0xREREO/BtVW21HSJAvopqOb2/H8TGOOzSw7ZOfX+vvcI1udeAgnWvRDlsK3ODBg9+BEDGw9ockVNlzhzHFfmqgVhPPH3HHesN1LFD5G8Gqw3tAS40WM83k6qr80X1MmMFRV5svPNO/sNPRET0L/eo6gLbIQLoZlRLv+absDEOt5wetpXv5i0Ah21l7K9z564D8ETGhVRPnfz220eJ6mgDtcK8jRpL6utfAWBscrICV02eNetzpur5ZZeursshMtZUPVF92FQtIiKiLPA+gJzcNdoHe0Dxs/58ABvjcPtOrg7bKmpv+k8O2zJHzWyn/pwAsw3U6UkOGvSQgTrWqKqK6gMGSw53ksnrDNbzXHlV1e4q8lOTNRW4z2Q9IiKiEOsCcKaqttkOEliCy3CxHNnX387GOLzmt0Zjv7Udwobijqb/APBD2zmyyWDVhwD0GCiV8TRqFVm4/LbbQv9F3oMmbnpZZeVUwzU9k0qlfgVghMGSry+uq3vZYD0iIqKwUgCzVPUftoMEnAPFXFRLft9+M4VRzg7bKk68GoOiFhy2ZdQTdXUJFVloO0evUG+j3mLJF7+4BMBqgyVFHeePR8Xjexqs6YkpM2deBJHzTdbU9JA9IiIiAq5S1btshwiJAwB8py+/kY1x2Kg0q6ZOy9VhW3AiD8HsWyjq5aia2E6dqZTruia3IFujs2e7AG43WVNUR+cD95x0+eWDTdY1aUpl5ZdE9UbDZZOan19juCYREVEYXauqoTpeFQDXoFp2OpeIjXG4JMXBOYnCCe/bDuI3AZyIm3cHgHG2s2SrTT09DwBIWQ2humRZfX2z1QwGJdONcdJkTQWO2LBu3W0VFRURk3VNmFpVta+TPq9utHFX4KGl8+Z9ZLImERFRCP2XqpqY55JrhkKw0yOobIzDRPS7LQUlC23HsKGofcUvBDjJdo5s9vSdd64FsNRmBsmSbdRbLK+r+xDAHzwoPX3N0KH3lVdVDfGg9oCUTZ9eqq67UAHjW71F5NemaxIREYVICsDlqnqV7SChpTgRF8vXdvRb2BiHxx2tBaX/ZzuEDelhW3KF7Rw5wuZ2ardHJCu2UW/NFbkO6SEZpp2act0Hjpg+3frRginx+GREIksBGL9SSoHGxbW1y0zXJSIiCokNAM5S1ZzsA4xS3IhqKd7eL7MxDgEFXhzc3Zmjw7ZeL+GwLf8k05OUvWji+uLp3jesWWVpbe1rAnjV8J84KBJ5cUo8Ptmj+jtUXl6eVxaPXytAI4CoF2s4qj/3oi4REVEIrARwpJq9AjKXFQP4r+39Ihvj4EukHOeMD/c4tNN2EL+lh22lHgaHbfmmtzF92sbaavdttadc4EoAmz0q/wUBFpbF4784sbJyF4/W+IypVVUHpD7/+eUArgaQ59Eyf1pUX/83j2oTEREFlQKYB2CSqr5qO0yWmYUL5Zht/QIb42BLishZHSPHv2M7iN84bMsesTSd2lG938a6flhSV/c6gJs8XCIC4KoukdVT4/FryquqCrxaqLyyckJZPF6vrvsCRA7zah0ASVd4hIKIiHLOagBfVtULVHWj7TBZSODgd6iSz8xp8eopP5kg+r2WgthC2zFsKGpf8XNAOGzLAicSuTflur+Ej9vXBXh2UX19Vj8AGjxkyLWbursrAOzl4TLFCsxOue7lU+Pxu1Tkvt07Oxc2NDRkNG38uHi8aBNwmgAVEDkB/vy38ZultbWv+bAOERFREHQB+F8Av2BD7Ln9kI8fArh2658MRWOskJeg+KE4Wg/FaNt5/CELWgtipu8CDYXijqbTAbnSdo5c1VhTs7osHn8ewKE+Lpu126i3+Ovcuesmx+MXOcCjPiwXVeBSqF66ZujQ1rJ4/DEFXhCRlyKbN7/UeOedrdv7QJkzx5n25ptjU45zkKoeKCJHAJgm/v578Xqyq4vXUVCmjpsSj/t2vCBwVD9aUl8/33YMItopF8CdAH6squ/ZDpMzBFfhQrkbv9emLT8V+MZYgNY8J3LGmpH7vl3U9vIkkfwHARxiO5eXFHhxSPfGi2znsKE48XoJHNSBw7bsErkXqv41xo6T9Y0xACytq/vzlJkz54nqLB+XLQYwXYDpUEUqPx9l8XgngPUA1gHYABGB6xZApGAKMCLlOHkAIGLl/4YpBWYtb2josrE4ZZXTBDjNdghrRJ4CwMaYKLg2A/gjgP9U1ZW2w+SgwXBwC0SmQVWB4J8x7oHIWWtG7vs2ACQKJ37gJHUqvJvwGgQ5O2wr2vFiAYdtBYOI+Hmf8EuLamre8HE9q/JEvgHgBcsxhgHYHcB4AIdC9RCIjAVQCNsPTEWuXlJXZ/U+bSIiIg+tAnAFgL1VtZJNsVVluBBVW/5HoBtjVVzaUlCyaOufax5VuiERjZ0hqnNs5fJQUsQ5O1eHbTk6mMO2AqK3UX3Fl8VU7/NlnYBorKnpFsc5B+k3tvTv/rSkru462yGIiIgMexfAjQCmqGqJqv63qq61HYoACH6JS2Q3IMCNsQK/TBTGbtvOr2lLYek1AnwN6YPqWUEFP2gpGN9oO4cNRe1N1wrwVds56F98uz7Jdf18Ox0Ii2pq3nCA0wFssp0lKBR4NeI407V3OxMREVGIbQDwGIAfAThEVceo6rdUlTuigqcQil8DAW2MBfJYWzT2o539vpZo7A+qOAbAGh9ieUwWJApi/2s7hQ3FHStOA3CV7Rz079Sf7dSrFt9xxwof1gmchXV1jSpShfRdhTlNgA+dSOSkxpqaDttZiIiI+kEBfAigEek3whcAmAQgqqpfUdXrVNX28SnaGcX5qJYTgjh8qymFQecq0KfrRRKFsaeLE69PgpN6EP5O0TVGIS/l6rCtUa2rxiMi9eCwrcBZWlv7Wlk8vgrpc6ie8Pksc+Asqa29q2zmzAKo/hY5+v8BAT5Mue6xS+vq3redhYiIAu8FAP/wec11SE+O3gCgDUACQAuADwC8q6rc/dU3bwF43naIHSgPWmPc5kT01NYRY9f154Nai/b7cPe1L09N5ufXQ3CGV+E80pbvRHJy2Nao1lXDNeLeDw7bCiwRuUdVf+xV/WSON8YAsLi29ndTZ85cr6p1ACK28/jsPcd1j100f/6btoMQEVEo/ElVr7YdggZA8VfcqpfYjrEjQdpK3SPinNU8onRA3yCtGT1xY6IwdhaAKxGerYkpVTlvy9TtXCKAoxH3TgAx21loB1S9PGf81rKamhc9rB8ai2prFyhwNoCNtrP46IVIKnV0I5tiIiIiCoDANMYCvTzTwVMKaGs0dr2qngsg8G9gVfGDRGHJ47Zz2FDU1jQHwMm2c9COLaqrewGqXj24yalp1DuzpK7ufgGmIL01K9s9OFR1SuMdd+TCn5WIiIhCIBiNscqNLdHSW0yVSxSWNjiikwEE+Mya3pkojP3GdgobijtWnAaBZ9tzyTARr94a5/w26k9bVFf3QqSn52ARedh2Fo8kBZizZOzYMx6vr8+lt+NEREQUcPYbY8FfE4Vrvme6bHNB6QuSco6AiN8H9HdKIS8N7u660HYOG0a1rhoPlTrk6KChMFJvtlO/v6S+PnD/3wyCxjvvbF1cV3cagMuRXVurm1zVIxfV1V2js2e7tsMQERERbc1uYyx4PSnJcxTTkl6Ubyke/9HwjiFlAO7wov4A5fqwrfsAjLSdhfpu6fz5fwfwntGiIvfyvtrtU1VdXFf3f0lgvIZ/y3mPANfvOnLkwUvr65+1HYaIiIhoW2w2xuvV1TM6Rh7Q7uUi74wZ052IxiqRHspl+y1FSlXPz/FhW6W2s1D/aLqDvd9kTSeVCnuz54vldXUfLqmrO1OBUwC8bDtPP7kK3Blx3dJFdXVXPnrjjbzOgoiIiALLVmOccoCvJQpLX/Njsa2Gcp0Di0O5ROWKRGHpY7bWt6m4rekacNhWaEVc1+R26o8XjRu3zGC9rLekru6RJWPHHgzVryF9h2OQJQH8URznoCV1dedz6jQRERGFgZ17jEW/21xQ+qjfyyYKS++Jdrz2RkSdBwHs4+faCtzVWljyP36uGRSjOlacqiIcthVii8aNWzbl7bfXANg901oC3M8zpv3X+zn7A4A/lFVWTgXwTYicDGCw3WRpKrJWXLdO8vJuWnT77QEefEhERET0Wf6/MVapaS0ovdH3dXu1F+z/kqRwJIBn/FpTgJfzN/fk7LAtVamH7fPslJHepszIdmoV4TbqDC2ur1+0uL7+LE0m91CRagB/A7DZQpRWUa2H6pf36Ozcc3F9/RVsiomIiCiMfH1jLMDS1kL3Yj/X3JaW4tjH++LNqe3tPbcCqPR4uTbHSZ2xZvTEbJou2ycctpV1akWkOJMC6rqbI++9t8hUoFy3ZMGCdgC3Ari1vKJi19TQoceK6jEQOVyBgwAMMbxkC4B/AHgawONLxo59lm//+0+BN0Xk7owLue6LBuIEjqi+KI6T+eeHXrcdgIgoTPxsjFfn5eefoRhn463GZ7yBcZsQRbyoo+l5Ufwa3rzRdFX1/LUjJ7zlQe1AE0CK8lI1UOGwrSyxuK7u7wAqbOegbWtsaNgA4MHeH5hUXZ0/tLOzFCL7ici+AnxRgd0AjILqKIjsCiAfwCAAPQBUgE4X+AQiLVBtEeBDAG+o47yRB6xsrKlZbemPl1UW19c/DuBx2zmCanF9fS2AWssxiIgox/jVGH/iQk79eNdxLT6t12eJgtgNu7U3veECdwEYYbK2qF7RmrPDtlbMVpEzbecgylXPzp3bA+Cl3h9EREREtAN+nPt0BXJ+W7TkFR/WGpDmaOxRFzIZwGpjRRX3tRaW5vKwratt5yAiIiIiIuoLzxtjAa5siZY87PU6mWqLlryyOS9yGICMzz8K8HJeT0+lAmogWqhw2BYREREREYWN183L/JZo7Jcer2HM+uH7tUaj+SdCtTaDMu0ctsVhW0REREREFB5eNsZPRaP5obui6A2M29RaWFqlgm8DSPXzw10XuTtsS/NSNQA4bIuIiIiIiELFq8b4I0k5Z72BcZs8qu+5REHsBlU9GcC6fnzYj9qipX/2KlOQFbetmA3lsC0iIiIiIgofLxrjLnGc01qKx3/kQW1fJQpLH5OUHA7pw12AivsSIdo2btKo9pWncNgWERFRaPE+8vDKuXk2RF4x3RirKqpaRo5/1nBda1qKS17fHJGjAG3cwW97JXeHba3cT6HzwWFbREREYdVjO0CviO0A/RCUrJttByDKFkabGRXMThTG/miyZhCsH16SSESbTwDw2238crsT0RwetqUctkVERBRuQWmMB9sO0A/DbAfoxcaYyBBzjbHovW0FsZ8bqxcwimnJ1mjsGwKpBpDs/WnXhZ7fPKL0TZvZbEgP29LbAexvOwsRERFlJCjN1RDbAfohKFmD8ndHFHp5huq8MLirq1ILsn8rcUu05NaitpWrRfSPAK7L1WFbhR0rr4bqWbZzZA3B8UXtK06wHYOIiLJHykld2THygPY+/NagNFcjRGSwqoZheOso2wF6BeXvjij0TDTGH8GNnPLhHod2GqgVConCkr8Utb06sa1wwge2s9gwqn3lyQKdbTtHNhHogYAcYTsHERFlj0hKfwagL43xeq+z9JEA2APAass5+uLztgP06rAdgChbZLqVuhuuntFatN+HRtKESKJwwvsctkVERERhp6obAQTlLe0+tgP0UVByttkOQJQtMmluVKAXtBaVPmMsDQXabi0rdu0dtlVgOwsREREZFZQGa6LtADsjInsiOFupE7YDEGWLTBrj/2yJli4wloQCTQBx850acNgWERFRNgpKY3yw7QB9EKSMQfl7Iwq9gTbGDySisZ8aTUKBVtjR9BMO2yIiIspaa20H6FVuO0AfHGM7wFbW2A5AlC0G0hivUM2PK+AaT0OBVNS28gRRcNgWERFR9nrXdoBeY0RkvO0QO/Fl2wF6rVdVvjEmMqRfjbEArXlO3imJwnFBmV5IHtttfdO+vVdTRWxnISIiIs8EpTEGgHNtB9geETkQQMx2jl7v2A5AlE360xhvTsE5fc3Ifd/2LA0FyqjWVcPdFO4Hh20RERFluyA1xjNFJKi3X1xsO8BWgvR3RhR6/fmikx/R1PGSvmOOspwAgjydBw7bIiIiygVv2g6wlTEAAjfXRET2AFBpO8dWgvR3RhR6/WmMRUVmF7c33fX5Dz4Y6lkiCoSijqYfq+rZtnMQERGRL14FoLZDbGW2iATtGNdVAIbZDrGVl20HIMom/d6mosA5Xbt8sqyo7dXPexGI7CtqW3kCFNfYzkFERET+UNUOAO/bzrGVUgDfsR1iCxH5EoBLbOf4lJdsByDKJgM9v3GwSOTp4sRrhxlNQ9Zx2BYREVHOCtobyDkiYn3QlYjsCqAGwfreKAmgyXYIomySyWCDz8FxFo9qX3G+sTRk1W4tK3Z1U7gPHLZFRESUi56zHeBThgF4UESitgL0DgGbj+BMot7iVVXdZDsEUTbJdOLfEIXML25vuk4yr0UWCSCaJ/MATLCdhYiIiKxYajvANuwL4E82muPeM86/B3C632v3wWLbAYiyjYlmVgBcUdSx8o97fvxckAYSUD8Uta/4kQIVtnPkLsm3nSD85CGF8LxVZtYBehMA13aQMBPBPAAf2c4RaopnBfiz7Rg56Gmkt+gGzZEAForIF/xaUERGALgHwNf9WrOfFtkOQJRtzL3lVT2re8guywvbV+xtrCb5oqit6XhArrWdI7dpj+0E4aevtEXXTFLBtwFssJ0mjAToaY2WflMcHIbgbakMDdeVP7sYXAqVGwGkbOcJIxWsbYnGThLIqQA+tJ0nV6jqBgAv2M6xHRMBPC8i53q9kIgcgfTXwCC+KQbS08OX2A5BlG2Mbn8W6IEO5OnixIrDTdYl70Q7Vo4RwV0I1kAJogFRTEsmCmI3JB1nokAes50nrFpGxp5PRNce0fuQYaPtPGHUFh27rrWw5FuqUob0NTg0AC3RkodTsmlC70MG7mTwx19sB9iBAgB3iciTInKo6eIiMkZE6gAsBzDOdH2DnlfVFtshiLKNF+eC94Aji4s7moJ0ATptw24tK3aNqD4MoMh2FiKTOkaOf6clWvIVVa2ASrPtPGG05SFDnpM3EcH+RjnQEoUlyxPRzkP4kGHg2gsO6mgtLPmWC50KYIXtPDngIdsB+uAYAM+KyEIRmS4iAx4aKiJDReQUEbkHwJsAKpE+JhhkD9oOQJSNvBqYNRiKWg7lCi4O26JckCgsvTvldI/n26aBWzNy37dbo7ETVbUCAN9QDIDi0J5EQeyGiJM6EIK/2s4TVm3R0qWJaOdBAK4EwGm83nkWwMe2Q/TRVKQnRq8VkUUi8ksROVdEjhSRPbYe2CUiI0VktIgcJiJnisi1IvIY0l/XHgJwJsKze46NMZEHvGxaBcAVhe1NDxW1vTnCw3VoAIraV17JYVuUC7a8bXKg08A7HwcsUVh6d9JJjlforUifb6N+WjtywlutBbET+JBh4BSH9rRGY9c7EZ0AxZO282QjVXURjrfGWxsEoAzA9wHchfRW6I8AtImIiogC6ACwBsDfkR6qdTWAEwHsYiXxwL2lqkG7b5ooK3j+NleArzrSsyTasXKM12tR36SHbenPbOcg8lNztHRJItp5IPi2acA6Rh7QnoiWVjuCaYCutJ0nrPiQIXPNI0rfTBTGjocgLkCr7TxZ6A7bAWi76mwHIMpWvmxzVmBinuo/RnWsnOrHerR90Y6VYxzBnQjPdiEiY/71tgkHQOVvtvOEVXNBbPHwdcMOFtU54EOGAdnykEFEygGssp0njBTQ1oJYvdOTmoD0dloyRFWXAuDDr+BxwcaYyDO+nf9VoFhVHy/uWDnTrzXp3+2+9uVdIqoPKVBsOwuRTc0jYm8kCkuOgyAOIGE7Txi9M2ZMd0th6TUuMAnAU7bzhFVLQcmioRuHb3nIsNl2njBau9uEta3RWKWIcwwEr9vOk0X41jh4/qKq79kOQZSt/B6MNRiqNcVtK28QvrH0lQCSGpQ/D8ABtrMQBcGWt02RntT+4NumAWuLxl5NRGNH9z5kaLOdJ4ze32uvrvRDBpkE4GnbecKqpWB849ANww/iQwZj5oE7QoLmZtsBiLKZnYnRopcXt698pLD97ZFW1s9BRe0rr1DgHNs5iIJmy9smB/gqgNW284TRP7e0JpUPGTLQFi15JRGNHSWQagDrbecJo389ZHAOA/CM7TxhpqprwP8/B0kTgD/ZDkGUzaxdpaTQLzvYtLRg3aov2MqQK4oTTccB+nPbOYiCrDkae3Rwd+f+AK4HkLSdJ4yaR5WuaY3GKgVyCgBu9xsABbQlWnKrpFCC9L2qNABt0fEvb/WQ4RPbeULsV+BVd0Fxfe/EcCLyiO07hifkue4/RnWsKrecI2tFO1aOEQd3gVvXiXbqwz0O7WyNxq5MiTsJgr/bzhNWLdGSRwZ3d8aQfsiQsp0njFqKYx+3FpScLZBTAbxvO08YKeCmHzI4JRC913aeMFLVVQDut52D8A7S11ARkYdsN8YAUKTq/qW4veky20Gyzec/+GBoRPVeDtsi6p/2gv1fShTEjuTbpoHb8pDBET0Mimdt5wmrlmjJw3mbe/iQIQMtxeM/ai0oPYsPGQbsCvDMtm0/UlX+HRB5LM92gF55AG4qal8xsS3afJliGrcxZkgAKd7lkxoAh9jOQn0RmS+O+w3bKUKtRz42WU4BF9GSW6MdTY87it9K+gyy15rEkRk+rLNNSU0Z/9rbXFD6gmDhkUXto78H4KcAhple47N0hjhOk/frbFsSPW+brLdm9MSNAK4salv5oIjOhQ9DFEXkbgiu93qd7XHEXWe6Zku05OHC9rcXO9h0HYCLEIyXA4Gnqm+JyK0A+G+UHX8H0GA7BFEuCEpjDAAQyEVF7aPHROXFc9oLDuqwnSfMitqbfshhW+Gh6q5tHVnynO0c9FntBbF3AZw8qn3lKQr3ZkD28mwxxcaWLPzvQDEtiSiuL1i3qiHPTf0OkBO9XE8cpykbP4+JwpKnBAsPKewYfZkofgFgF6/WUtXm1oJY1n0O26Jj1wG4pKht5fzehwwTbGcKiWsBnAeg0HaQHOMC+I6qqu0gRLkgiE9LT4i4g/9enHi9xHaQsEoP28IvbOcgyiYt0ZKHXQyZAJUbwWE0A9Ixcvw7rdHSL6tqBVSabecJI8W0ZKIgdkOekzcRwF9s5wmrRGHJ8kS08xAVfBvARtt5gk5VWwB813aOHHSzqi63HYIoVwSxMQYE+8JJLStet+JY21HCJtrRtA+HbRF5oy06dl1rYcm3XDhlAF6znSesEoWld6ec7vF8yDBwa0bu+3ZrNHaiqlYAaLGdJ4wUh/YkCmI3RJzUgRD81XaeoFPVOgCP2c6RQ94FcJXtEES5JJiNcVohXHmsuGPFN20HCYv0sC3cx2FbRN5qi45floh2HgzgSgDdtvOEUXvBQR2thSXfcqDTkL6fkwYgUVh6d9JJjlforQC43XIA1o6c8FZrQewEPmTok2oA7bZD5AAXwCxV5fBHIh8FuTEGgDyo3FjUvmKu4Ll822GCrnOXT24Hh20R+UJxaE9rNHZ9xElNgOAJ23nCqjlauiQR7TwQ6YcMm2znCaOOkQe0J6Kl1Y5gGqArbecJKz5k2DlVfQ9AJfj58dq1qvqk7RBEuSbojTGA3qFcHcMeLVj3StR2lqAa1d70AwHOtZ2DKNesHTnhrURB7AQI4gK02s4TRlseY7Gd7QAAERVJREFUMjgRHACVv9nOE1bNBbHFw9cNO1hU54APGQZky0MGESkHsMp2niBS1UcA/NJ2jiz2JICf2w5BlItC0RgDABTH5bl5fy9OvBqzHSVoitetOFaB/7SdgyhXKaCtBbH6zRHl26YMNI+IvZEoLDkOgjiAhO08YfTOmDHdLYWl10hKJgLaaDtPWLUUlCwaunH4locMvD/2s34Mnjf2wusAzlFV3llOZEF4GuO0cXAiz4xqX3my7SBBEe1o2kdc+QMCdvUWUS5aN6K0rfdt0zHg26YB2fKQIdKT2h/AfNt5wqqluOT1RLT02N6HDG2284TR+3vt1dVSWHqNC5kE4CnbeYJEVZMAzgTwtO0sWaQFwFdVlQ8FiSwJW2MMAMMV+kBxe9MVtoPY1jts614O2yIKlpaCkoV825SZtbtNWNsajVU6wFcBrLadJ4y2PGRwksqHDBloi5a8kojGjhZINYD1tvMEhap2AjgdwFu2s2SB9QC+rKpv2g5ClMvC2BgD6auIrhvV0fR7wYpBtsPY0jXsk98BONR2DiL6rH+9bXIOA9+qDFhzNPbo4O7O/XsfMvTYzhNGzaNK17RGY5UCnIz0FTDUTwpoS7TkVkmhBHzI8E+quhbAFPD6uky0AzhRVZ+3HYQo14W1MQYAqOKC4nZ5cvcNL+9mO4vfRrWt+H7vFjkiCrC26PiX+bYpMx/ucWhnS2HpNSlxD4Pg77bzhFVLNPanwd2dpQCuB8AzjAPQUhz7OP2QQU4B8J7tPEGgqh8DOBbAK7azhFAzgHJV5cNTogAIdWMMAApM7unJe6qobcX+trP4pXjdimNV5L9s5yCivlHA/efbJpF7bOcJq/aC/V9KFMSO7H3IwPs9B+DDPQ7tbI3GrnREJ0HkH7bzhFVLtOSRwd2dMfAhA4B/vjkuB7DQcpQwaQJwtKq+ZDsIEaWFvjEGAIGMFZGnRnWsONV2Fq9FO5r2gSt3gcO2iEKnpTj2cWtBydkCORXA+7bzhNG/HjI4JRC913aesGouKH0xUbDmKBV8G8AG23nCaKuHDIdB8aztPLb1Do06HsBNtrOEwOMAjuKZYqJgyYrGuNdwVbkvm4dybRm2BWCU7SxENHAt0ZKHVfMnQOVG8G3TgLQUj/+otaD0rPRDBv3Adp4wUkxLJgpiNyQdZ6JAePXOADUXlL6QKFx7JB8ypKdVq+o3AVwMoNN2ngBKAvgZ0tOnO2yHIaJ/l02NMdA7lKu4fcWCL6xePcR2GNO6hq2/GRy2RZQVEoXj1rcWlnxLHBwOgENXBqglWvKwiyFbHjK4tvOEUcfI8e+0REu+0ruT4UPbecJo64cMgD5uO49tqjoX6e9X+LXtX1YDOEZVf8p7iomCKdsa415y3icju54c3fzqaNtJTBnVtvJ7EJlpOwcRmdU6cu3LAO6znSPM2qJj1yn0LnB7ekaS0r1EgcW2c4RZx8jx7wikFkCX7Sy2qepKAEcCmAOg23Icm5IAbgRwgKousR2GiLYvSxtjAMBRqXzn2VHrmg6xHSRTxetWHKOi19nOQURm7dax4uCittFPAfi57Sxhtfval3cpbm+6TgRLAexjO09YjWpfeUpEB/1/e/ce5FZZhgH8ec9JtiGUbZKTZLdsF1hsoUVaKQKiXAQEuRbxUi+jVbnVkSIo4hT8AwrKWEARtRd3YRxwGC+DdURHRx3RekNHWkHbnpMFYVaoA9PdzTm7Fdqlm/P6R1oocmtPkv1ykuc3k7+6++XZbqbpk/Od99skwEdMZ4mrbFA6rOB7v1Dg+wAOMJ2nGajqC6q6AsDRAH5uOI4JD6N6L/HVqtrW2+yJ4qCVizEAmaUhfp8PvItMJ4kq57uHIJQfgMO2iFpGzzMb03nfWxmqPAzBcabzxFXBLy2a7Eh6AJajeisN7af86GM9+bK3TqE/BWSW6TxxJFifcALvalt1kwLnms7TjFT1CVW9AMA5AB4ynWcK/APABwC8TVU5/Z0oJlq8GAMApkPx40LZXSGAmA6zP/qGhlKWCodtEbWQgl+6YCKVZpmrQWHEm5kPSvdXyxx6TeeJIwGsgl9aCqviQfA+03niqhi4xzhB90OiuBPAdNN5mp2q/kpVTwJwJoAHAajhSPX2NwDvBbBQVdepaqv9fEQtrV2uQoqK3JjzvSN7nzvokqdnzYrFvT/bO59fCxFeTSJqAYURb6bauBXAEtNZ4koAK++XLlMbt0O103SeuMoGW97iwBpQ4ATTWeKq55mN6YlU+gZArgWUH3DtJ1V9EMCDIjIHwKW7H3mzqSLbCeBnAO5U1Va+Gn6K6QC7cQgtNUw7XDF+kQAf3nHg9t8Wh91u01neiFP2PsdhW0TxJ4DkA+/jamMzWIojy/mDCxzf+7NC+wGwFEewZwu/rdYGKEtxVAXfO38ilXbBXR81U9XHVfU6VHd+XATgPgBjZlPtkx2oDk38KICiqn6wxUsx0Dy7LpslB7WgdrlivLcTw4RsKIwNXjQ848gNpsO8mkIweLoIbjOdg4hqk/O9ox1gANXJrBRB79atB+xMjy+3RK4H0GE6T1wVfe+8MJVeDeAw01niqjjsdocJuQ38gKvuVHUngAcAPCAi0wC8E8C7AJwBYCGa4wOILahu//4tgN+o6nOG80y1ZpkszvOxqWHasRgDQI+G4R8LfunS4ezc75kOs7ec7x5iQX6I9v3dEMVe39BQ6r+dz1/HMlebQlA6TadrP1SOMJ0lrrq2be6qJO3bwTIXmQDiBN4SJOQOAI7pPK1OVScA/Hr3AyKSAXA8gGNRLckLAfQBSDYoQgjgKQCPAnhk9+NhVX22Qc8XF38FcKrpEKh+MEHUEO1cvlIKvS/vewtGs/Ou1yYYANE3NJSyOmUdhMO2iOKqGHinhjO0H5C5prPE1YxxN5eo4CsCWWo6S1y9WOaSNstcDYrj3hynov2AnG46S0NdJdMwiR7TMV6NfhoA8MTux/0AMLwD9j2DOHhzGb3bdqD3uV3IvxAiuytEZleIrCqSFUUnqttubQVEqucJwxaMCVBJWPCTFoJpNvwDEhjNp7D1yAyeXnIktvYdhF3/FyONK+Twqfupm8/sGag8tR1PmM4x30Gi3X8XAIAXUMHd+m/TMVpNOxdjoPoP5vJ8UDq8Z8dzn/zPzLca3Z6xvXPnGh7dQhRPmbFNWTu0Vwrk8ur/wWh/7SlzHSpf0/gO4jGuOO7NcSbl2xCcYTpLXAk2Jh0/fQ2AmwCZZjpPw+3CUQjxd9Mx9lWhA/jC/AY+QaWBa8fU4x8yneBFd6KCO02HMM7GNgBdpmO0mnYvxgAAVV28M5Wek/Pd95SzRz1lIoMTeJ8VwcUmnpuIauOU3cUJSawGj1aLrDjuznZCWQvFmca378TUy8qcaOuXuQYp+u4pDtL9AOaZzkJERFOHxXg3AY4RyF/yo1suGnHePKWHsed892QLwmFbRDHTPfb44ZPh5FoRebfpLHH1UpmTFQBSpvPEFctc7V6+64OTb4mI2k1bHde0Dw6GZf0h77sfm6onzPnuIZZa69C4IRJEVGeC9Qkn8K6eDCf/CYClOKKcP3iS46cfAbASLMWRZINHM/ly6RshZD1YiiNzyu7iRCVZ2n1fO0sxEVEb4hXjV0oB8t287x09mp33Ra1OJ2yIvqGhlJWxfgRosVHPQUT1VRjzjnXCrrtQnZBKEWSDRzN2mLrJEr0S/IA2MqfsLraRWgXhe0hUmbHBvkRYWSsiZzfBDE4iIjKIxfjVCYDlTuDO7p6Y/MSzXQsaclbd9syO1VAc34i1iai+nPK/OgWTX4JgGZrjTM1YKvilRTY61kB0lukscZUZG+xLhrpGRM5hmYtGsD6RC7qWJRRfBmS66TxERGQei/HrUXl/pSM5Jxt4F/qZeXUdie4E3tWiuKSeaxJRYxT80iIRXQ2g13SWuMqPPtYDqXwLgvdyp2o0e5c5BVjmIioG7kIn7BrgKRBERLQ3FuM3oMCChGJDMfDevy0z7w/1WDPnD55kARy2RS8RXOb4Ll8TNbDUWjOcm/u1eq7plP85SyS5CsB76rnuaxLMd3zX2DmRAvFHsvPqWhYE6xO5cvdVYunNAA6s59qvRUN9wPHdial4rlcPgGWjuaN+Wc8l86Nbjs9ZXQMCHFPPdV/HEsd3z52i53oFS+R3w5l5l9VzzcLI4EFq6y2ALINwCz8REb0ci/E+UCCvil/ng9KnRjJz761lLae8uddC4scQdNQrH8WfQDMAD6yvhYpm67WWAFbeL10mkrwdQGe91t0H08Tg60CAkXqulw22vMVB910QnepbRnrE4FVphdTtA4CeZzamJ1LpG2BZ18rUbuHvFMhUvvZfJlR49Vyv4JcWqa2rABxSz3WJiKh1sBjvu2lQvSdfLh07mpv7uShDufqGhlKSSayDclAKUbPK+YMLHIT9CpxoOktc7SlzNqxrAeX92BEVfO98TaVXAzjUdJa4Kox4M9XGrQCWmM5CRETNjcV4f4lelfO92Y4mPzKamz2+P9/KYVtEzat369YDdqbHl1si1wPc0RFV0ffOC1PpNWCZi6w47HaHCbkNLHORCSB5v3S52pjqXR9ERBRTLMYRCHAeZNefskHpQj8zd2hfvicfuJ+BCodtETWhQlA6TadrP1SOMJ0lrrq2be6qJO3bwTIXmQDiBN4SJOTrAHKm88RVzi/Nd6D9CrzddBYiIooPFuPo5tuqGwpB6QPDmbnrX+8Lq8O25KtTlIuI9tGMcTeXqOArAllqOktcvVjmkvYdABzTeeKqOO7NcSraD8jpprPEFXd9EBFRLTiVsTaOqv7KCdyLX+sLCiPeTAvh/eCbNFHTEEDygffxjooMshRHVxz35jjl0m+guBcsxZH0DQ2lCmV3RVjBJpbi6ApB6Z07Dtz+iIrcCL7fEhFRBLxiXLsOUfmO47snlrPblilOm9zzB31DQynN4CdQzDQZkIheUhx3ZzuhrIXiTDUdJqYEG5OOn74GwE0QnWY6T1wVffeUcAYGAJlrOktcZcY2Ze3QXimQy8EDsomIqAYsxnUikKWOXzw0hyc/VM4ePgYA/83sWAXFCaazEdHeZU5WAEiZzhNXOd892UF6AMA801niimWuPpyyuzghidUACqazEBFR/LEY15WcbcnE3wojgxeqrWcBuNR0IiKq3ufvIN0P4M2ms8RVNng0Y4epmyyRK8HbcCJzyu7iBJKrIDy2L6qusc1vqqi9VkTOMp2FiIhaB4txvSmOUDt8CMBBpqMQtbuc/+QMS1+42RJlmatBwS8tsjFtLUR7TGeJq8zYYF8irKwVkbMBbuKPQrAxmQvSV4jatwA40HQeIiJqLSzGjcFjNogMK/ilRRbCNRCZZTpLXGXGBvuSoa5R6Dmms8SVYH0iF3QtSyi+DMh003niyimX3uFIegDc9UFERA3CYkxELSU/+lgPpPJNCN7H2zej2bvMKcAyF1ExcBc6YdcABMeZzhJXe3Z9iOgyALbpPERE1LpYjImoRahV8EtLYelXwVsZIisG7jEOugegerzpLHEllqbzvrcSkGshLHNRVXd96GoIek1nISKi1sdiTNQceORNzeTzCuX5pTVQIKsqGwBlmauF4m7wLN2aCHCWQs83nYOIiNoHizFRc5gwHaAFsIjUjoW4PvharB3/DomIaEpxSisRERERERG1NRZjIiIiIiIiamssxkRERERERNTWWIyJiIiIiIiorbEYExERERERUVtjMSYiIiIiIqK2xmJMREREREREbY3FmIiIiIiIiNoaizERERERERG1NRZjIiIiIiIiamssxkRERERERNTWWIyJiIiIiIiorbEYExERERERUVv7HxQzC0w21HdMAAAAAElFTkSuQmCC;" vertex="1" parent="1">
          <mxGeometry x="80" y="409" width="255.09" height="61" as="geometry" />
        </mxCell>
        <mxCell id="FPVUuivVjFBQVfVoQUVH-26" value="2025" style="text;html=1;strokeColor=none;fillColor=none;align=center;verticalAlign=middle;whiteSpace=wrap;rounded=0;" vertex="1" parent="1">
          <mxGeometry x="740" y="450" width="60" height="30" as="geometry" />
        </mxCell>
      </root>
    </mxGraphModel>
  </diagram>
</mxfile>
